<svg width="32" height="32" viewBox="0 0 32 32" fill="none" xmlns="http://www.w3.org/2000/svg">
<path d="M15.9998 2.6665C8.63984 2.6665 2.6665 8.63984 2.6665 15.9998C2.6665 23.3598 8.63984 29.3332 15.9998 29.3332C23.3465 29.3332 29.3332 23.3598 29.3332 15.9998C29.3332 8.63984 23.3465 2.6665 15.9998 2.6665ZM24.8065 8.81317C26.4476 10.8121 27.3556 13.3123 27.3798 15.8985C27.0052 15.8265 23.2452 15.0598 19.4558 15.5372C19.3692 15.3492 19.2958 15.1465 19.2105 14.9438C18.9748 14.3878 18.7241 13.8383 18.4585 13.2958C22.6518 11.5892 24.5612 9.1305 24.8065 8.81317ZM15.9998 4.63317C18.8932 4.63317 21.5385 5.7185 23.5492 7.49717C23.3465 7.78517 21.6252 10.0852 17.5758 11.6038C15.7105 8.17717 13.6425 5.3705 13.3238 4.93717C14.201 4.73228 15.0991 4.63026 15.9998 4.63317ZM11.1558 5.70384C12.6815 7.81907 14.0912 10.0156 15.3785 12.2838C10.0558 13.7012 5.35584 13.6705 4.8505 13.6705C5.21684 11.9466 5.97651 10.3307 7.07025 8.9488C8.16398 7.56688 9.56221 6.45635 11.1558 5.70384ZM4.60384 16.0132V15.6665C5.09717 15.6798 10.6198 15.7532 16.3038 14.0465C16.6372 14.6825 16.9398 15.3332 17.2292 15.9838C17.0838 16.0278 16.9252 16.0705 16.7812 16.1145C10.9092 18.0078 7.78517 23.1852 7.52517 23.6198C5.64474 21.5326 4.6031 18.8226 4.60384 16.0132ZM15.9998 27.3958C13.4684 27.4004 11.0086 26.5553 9.0145 24.9958C9.21717 24.5758 11.5318 20.1212 17.9518 17.8798C17.9812 17.8665 17.9958 17.8665 18.0238 17.8505C19.107 20.6443 19.9209 23.5352 20.4545 26.4838C19.0476 27.0892 17.5315 27.3996 15.9998 27.3958ZM22.3478 25.4425C22.2332 24.7492 21.6252 21.4225 20.1345 17.3305C23.7078 16.7665 26.8318 17.6918 27.2212 17.8225C26.9778 19.3599 26.4193 20.8304 25.5807 22.1417C24.7421 23.453 23.6414 24.5768 22.3478 25.4425Z" fill="black" fill-opacity="0.38"/>
</svg>
