<svg width="32" height="32" viewBox="0 0 32 32" fill="none" xmlns="http://www.w3.org/2000/svg">
<path d="M22.6667 8.66667H23.3333M4 12.5333C4 9.54667 4 8.05333 4.58133 6.912C5.09265 5.90851 5.90851 5.09265 6.912 4.58133C8.05333 4 9.54667 4 12.5333 4H19.4667C22.4533 4 23.9467 4 25.088 4.58133C26.0915 5.09265 26.9073 5.90851 27.4187 6.912C28 8.05333 28 9.54667 28 12.5333V19.4667C28 22.4533 28 23.9467 27.4187 25.088C26.9073 26.0915 26.0915 26.9073 25.088 27.4187C23.9467 28 22.4533 28 19.4667 28H12.5333C9.54667 28 8.05333 28 6.912 27.4187C5.90851 26.9073 5.09265 26.0915 4.58133 25.088C4 23.9467 4 22.4533 4 19.4667V12.5333Z" stroke="black" stroke-opacity="0.38" stroke-width="1.5" stroke-linecap="round" stroke-linejoin="round"/>
<path d="M20.6158 15.3161C20.7056 15.9224 20.6751 16.5404 20.5261 17.1349C20.3771 17.7294 20.1124 18.2887 19.7473 18.7809C19.3821 19.2731 18.9235 19.6886 18.3978 20.0036C17.872 20.3186 17.2894 20.5269 16.6831 20.6168C16.0768 20.7066 15.4588 20.6761 14.8643 20.5271C14.2698 20.3781 13.7105 20.1134 13.2183 19.7482C12.2242 19.0107 11.5639 17.9085 11.3824 16.6841C11.201 15.4597 11.5135 14.2133 12.251 13.2193C12.9885 12.2252 14.0907 11.5648 15.3151 11.3834C16.5395 11.202 17.7859 11.5144 18.7799 12.252C19.774 12.9895 20.4344 14.0917 20.6158 15.3161Z" stroke="black" stroke-opacity="0.38" stroke-width="1.5" stroke-linecap="round" stroke-linejoin="round"/>
</svg>
