<svg width="32" height="32" viewBox="0 0 32 32" fill="none" xmlns="http://www.w3.org/2000/svg">
<path d="M6.15467 25.3332C5.54044 25.3332 5.028 25.1278 4.61733 24.7172C4.20667 24.3065 4.00089 23.7936 4 23.1785V8.82117C4 8.20695 4.20578 7.6945 4.61733 7.28384C5.02889 6.87317 5.54089 6.66739 6.15333 6.6665H25.8467C26.46 6.6665 26.972 6.87228 27.3827 7.28384C27.7933 7.69539 27.9991 8.20784 28 8.82117V23.1798C28 23.7932 27.7942 24.3056 27.3827 24.7172C26.9711 25.1287 26.4591 25.3341 25.8467 25.3332H6.15467ZM16 16.1545L5.33333 9.17984V23.1798C5.33333 23.4189 5.41022 23.6154 5.564 23.7692C5.71778 23.9229 5.91467 23.9998 6.15467 23.9998H25.8467C26.0858 23.9998 26.2822 23.9229 26.436 23.7692C26.5898 23.6154 26.6667 23.4185 26.6667 23.1785V9.1785L16 16.1545ZM16 14.6665L26.256 7.99984H5.744L16 14.6665ZM5.33333 9.17984V7.99984V23.1798C5.33333 23.4189 5.41022 23.6154 5.564 23.7692C5.71778 23.9229 5.91467 23.9998 6.15467 23.9998H5.33333V9.17984Z" fill="black" fill-opacity="0.38"/>
</svg>
