<svg width="80" height="80" viewBox="0 0 80 80" fill="none" xmlns="http://www.w3.org/2000/svg">
<path d="M16 18C16 15.3478 17.0536 12.8043 18.9289 10.9289C20.8043 9.05357 23.3478 8 26 8H54C56.6522 8 59.1957 9.05357 61.0711 10.9289C62.9464 12.8043 64 15.3478 64 18V32C62.72 31.9994 61.4734 32.4082 60.4422 33.1667C59.4111 33.9251 58.6496 34.9934 58.2689 36.2155C57.8882 37.4376 57.9083 38.7494 58.3262 39.9592C58.7442 41.1691 59.5381 42.2135 60.592 42.94C56.204 45.588 49.608 48 40 48C30.392 48 23.796 45.588 19.408 42.94C20.4619 42.2135 21.2558 41.1691 21.6738 39.9592C22.0917 38.7494 22.1118 37.4376 21.7311 36.2155C21.3504 34.9934 20.5889 33.9251 19.5578 33.1667C18.5266 32.4082 17.28 31.9994 16 32V18ZM40 60C50.168 60 58.04 57.76 64 54.76V62C64 64.6522 62.9464 67.1957 61.0711 69.0711C59.1957 70.9464 56.6522 72 54 72H26C23.3478 72 20.8043 70.9464 18.9289 69.0711C17.0536 67.1957 16 64.6522 16 62V54.76C21.96 57.76 29.832 60 40 60ZM30 20C29.4696 20 28.9609 20.2107 28.5858 20.5858C28.2107 20.9609 28 21.4696 28 22C28 22.5304 28.2107 23.0391 28.5858 23.4142C28.9609 23.7893 29.4696 24 30 24H50C50.5304 24 51.0391 23.7893 51.4142 23.4142C51.7893 23.0391 52 22.5304 52 22C52 21.4696 51.7893 20.9609 51.4142 20.5858C51.0391 20.2107 50.5304 20 50 20H30ZM28 34C28 34.5304 28.2107 35.0391 28.5858 35.4142C28.9609 35.7893 29.4696 36 30 36H42C42.5304 36 43.0391 35.7893 43.4142 35.4142C43.7893 35.0391 44 34.5304 44 34C44 33.4696 43.7893 32.9609 43.4142 32.5858C43.0391 32.2107 42.5304 32 42 32H30C29.4696 32 28.9609 32.2107 28.5858 32.5858C28.2107 32.9609 28 33.4696 28 34ZM6 36C5.46957 36 4.96086 36.2107 4.58579 36.5858C4.21071 36.9609 4 37.4696 4 38V48C4 48.5304 4.21071 49.0391 4.58579 49.4142C4.96086 49.7893 5.46957 50 6 50C6.53043 50 7.03914 49.7893 7.41421 49.4142C7.78929 49.0391 8 48.5304 8 48V43.972C9.08 45.112 10.412 46.352 12.04 47.592C17.628 51.852 26.552 56 40 56C53.448 56 62.368 51.852 67.96 47.592C69.588 46.352 70.92 45.112 72 43.972V48C72 48.5304 72.2107 49.0391 72.5858 49.4142C72.9609 49.7893 73.4696 50 74 50C74.5304 50 75.0391 49.7893 75.4142 49.4142C75.7893 49.0391 76 48.5304 76 48V38C76 37.4696 75.7893 36.9609 75.4142 36.5858C75.0391 36.2107 74.5304 36 74 36H64C63.4696 36 62.9609 36.2107 62.5858 36.5858C62.2107 36.9609 62 37.4696 62 38C62 38.5304 62.2107 39.0391 62.5858 39.4142C62.9609 39.7893 63.4696 40 64 40H70.18C69.116 41.28 67.596 42.84 65.54 44.408C60.628 48.148 52.552 52 40 52C27.448 52 19.368 48.148 14.464 44.408C12.757 43.1158 11.1993 41.6374 9.82 40H16C16.5304 40 17.0391 39.7893 17.4142 39.4142C17.7893 39.0391 18 38.5304 18 38C18 37.4696 17.7893 36.9609 17.4142 36.5858C17.0391 36.2107 16.5304 36 16 36H6Z" fill="#505DE9"/>
</svg>
