<svg width="80" height="80" viewBox="0 0 80 80" fill="none" xmlns="http://www.w3.org/2000/svg">
<path d="M43.9695 6.75C47.7663 6.76012 49.6935 6.78038 51.3573 6.82762L52.0121 6.85125C52.7681 6.87825 53.514 6.912 54.4151 6.9525C58.0061 7.12125 60.4563 7.68825 62.6062 8.52188C64.8337 9.37913 66.7102 10.5401 68.5867 12.4132C70.3036 14.0998 71.6316 16.1408 72.4781 18.3937C73.3117 20.5436 73.8787 22.9939 74.0475 26.5882C74.088 27.486 74.1217 28.2319 74.1487 28.9912L74.169 29.646C74.2196 31.3065 74.2398 33.2336 74.2466 37.0305L74.25 39.5482V43.9695C74.2582 46.4312 74.2323 48.893 74.1723 51.354L74.1521 52.0087C74.1251 52.7681 74.0913 53.514 74.0508 54.4117C73.8821 58.0061 73.3083 60.453 72.4781 62.6062C71.6316 64.8591 70.3036 66.9001 68.5867 68.5867C66.9001 70.3036 64.8591 71.6316 62.6062 72.4781C60.4563 73.3117 58.0061 73.8787 54.4151 74.0475L52.0121 74.1487L51.3573 74.169C49.6935 74.2162 47.7663 74.2399 43.9695 74.2466L41.4517 74.25H37.0338C34.571 74.2587 32.1081 74.2328 29.646 74.1724L28.9912 74.1521C28.19 74.1218 27.389 74.0869 26.5882 74.0475C22.9972 73.8787 20.547 73.3117 18.3937 72.4781C16.142 71.6312 14.1022 70.3032 12.4166 68.5867C10.6985 66.9005 9.36933 64.8595 8.52184 62.6062C7.68822 60.4564 7.12122 58.0061 6.95247 54.4117L6.85122 52.0087L6.83434 51.354C6.77213 48.893 6.744 46.4313 6.74997 43.9695V37.0305C6.74062 34.5688 6.76538 32.107 6.82422 29.646L6.84784 28.9912C6.87484 28.2319 6.90859 27.486 6.94909 26.5882C7.11784 22.9939 7.68484 20.547 8.51847 18.3937C9.36794 16.1399 10.6995 14.0988 12.42 12.4132C14.1046 10.6972 16.1432 9.36925 18.3937 8.52188C20.547 7.68825 22.9938 7.12125 26.5882 6.9525C27.486 6.912 28.2352 6.87825 28.9912 6.85125L29.646 6.831C32.107 6.77104 34.5687 6.74516 37.0305 6.75337L43.9695 6.75ZM40.5 23.625C36.0244 23.625 31.7322 25.4029 28.5675 28.5676C25.4029 31.7322 23.625 36.0245 23.625 40.5C23.625 44.9755 25.4029 49.2677 28.5675 52.4324C31.7322 55.5971 36.0244 57.375 40.5 57.375C44.9755 57.375 49.2677 55.5971 52.4324 52.4324C55.5971 49.2677 57.375 44.9755 57.375 40.5C57.375 36.0245 55.5971 31.7322 52.4324 28.5676C49.2677 25.4029 44.9755 23.625 40.5 23.625ZM40.5 30.375C41.8296 30.3748 43.1463 30.6364 44.3748 31.1451C45.6033 31.6537 46.7196 32.3993 47.6599 33.3393C48.6003 34.2794 49.3463 35.3954 49.8553 36.6238C50.3643 37.8521 50.6264 39.1687 50.6267 40.4983C50.6269 41.8279 50.3652 43.1446 49.8566 44.3731C49.348 45.6016 48.6023 46.7179 47.6623 47.6583C46.7223 48.5986 45.6062 49.3446 44.3779 49.8536C43.1495 50.3627 41.833 50.6248 40.5033 50.625C37.818 50.625 35.2427 49.5583 33.3439 47.6595C31.4451 45.7606 30.3783 43.1853 30.3783 40.5C30.3783 37.8147 31.4451 35.2393 33.3439 33.3405C35.2427 31.4417 37.818 30.375 40.5033 30.375M58.2221 18.5625C57.1032 18.5625 56.0302 19.007 55.239 19.7981C54.4478 20.5893 54.0033 21.6624 54.0033 22.7812C54.0033 23.9001 54.4478 24.9732 55.239 25.7644C56.0302 26.5555 57.1032 27 58.2221 27C59.341 27 60.414 26.5555 61.2052 25.7644C61.9964 24.9732 62.4408 23.9001 62.4408 22.7812C62.4408 21.6624 61.9964 20.5893 61.2052 19.7981C60.414 19.007 59.341 18.5625 58.2221 18.5625Z" fill="#505DE9"/>
</svg>
