<svg width="80" height="80" viewBox="0 0 80 80" fill="none" xmlns="http://www.w3.org/2000/svg">
<path fill-rule="evenodd" clip-rule="evenodd" d="M13.6667 10C11.8986 10 10.2029 10.7024 8.95262 11.9526C7.70238 13.2029 7 14.8986 7 16.6667V63.3333C7 65.1014 7.70238 66.7971 8.95262 68.0474C10.2029 69.2976 11.8986 70 13.6667 70H67C68.7681 70 70.4638 69.2976 71.714 68.0474C72.9643 66.7971 73.6667 65.1014 73.6667 63.3333V16.6667C73.6667 14.8986 72.9643 13.2029 71.714 11.9526C70.4638 10.7024 68.7681 10 67 10H13.6667ZM29.0833 28.7667C29.1573 28.1294 29.3792 27.5182 29.7313 26.9819C30.0834 26.4456 30.556 25.9991 31.1113 25.6778C31.6667 25.3566 32.2894 25.1696 32.9299 25.1318C33.5703 25.094 34.2107 25.2064 34.8 25.46C36.48 26.18 40.0267 27.8 44.52 30.3933C47.6778 32.1981 50.7275 34.186 53.6533 36.3467C54.1678 36.7294 54.5856 37.2272 54.8734 37.8002C55.1613 38.3731 55.3112 39.0055 55.3112 39.6467C55.3112 40.2879 55.1613 40.9202 54.8734 41.4932C54.5856 42.0661 54.1678 42.5639 53.6533 42.9467C50.7273 45.1051 47.6777 47.0907 44.52 48.8933C41.379 50.728 38.1335 52.3775 34.8 53.8333C34.2108 54.0877 33.5702 54.2006 32.9295 54.1632C32.2888 54.1257 31.6658 53.9388 31.1102 53.6174C30.5547 53.2961 30.082 52.8492 29.7301 52.3125C29.3781 51.7759 29.1566 51.1643 29.0833 50.5267C28.6834 46.9139 28.4875 43.2815 28.4967 39.6467C28.4967 34.4767 28.87 30.5833 29.0833 28.7667Z" fill="#505DE9"/>
</svg>
