<svg width="80" height="80" viewBox="0 0 80 80" fill="none" xmlns="http://www.w3.org/2000/svg">
<path d="M73.5728 25.5967C73.728 29.5701 73.8335 34.3248 73.8335 39.917C73.8335 51.073 73.4141 58.8994 73.0132 63.8301C72.6106 68.7863 68.7859 72.6102 63.8296 73.0127C58.8989 73.4137 51.0725 73.833 39.9165 73.833C28.7604 73.833 20.9341 73.4137 16.0034 73.0127C11.0471 72.6102 7.22235 68.7864 6.81982 63.8301C6.41886 58.8994 6.0005 51.073 6.00049 39.917C5.99446 35.1425 6.08137 30.3678 6.26123 25.5967H73.5728ZM39.9175 6C51.0736 6.00001 58.8999 6.41935 63.8306 6.82031C68.7868 7.22281 72.6106 11.0467 73.0132 16.0029C73.1318 17.44 73.2473 19.1307 73.3589 21.0742H6.4751C6.58564 19.1317 6.70121 17.441 6.8208 16.0029C7.22336 11.0468 11.0473 7.2229 16.0034 6.82031C20.9341 6.41934 28.7612 6 39.9175 6ZM17.3062 12.0293C16.7066 12.0293 16.1315 12.2676 15.7075 12.6914C15.2835 13.1154 15.0454 13.6913 15.0454 14.291C15.0455 14.8906 15.2836 15.4657 15.7075 15.8896C16.1315 16.3136 16.7066 16.5518 17.3062 16.5518H20.3208C20.9204 16.5518 21.4954 16.3136 21.9194 15.8896C22.3434 15.4657 22.5815 14.8906 22.5815 14.291C22.5815 13.6913 22.3435 13.1154 21.9194 12.6914C21.4954 12.2676 20.9203 12.0293 20.3208 12.0293H17.3062ZM29.3657 12.0293C28.7661 12.0293 28.1901 12.2674 27.7661 12.6914C27.3421 13.1154 27.104 13.6913 27.104 14.291C27.1041 14.8905 27.3422 15.4657 27.7661 15.8896C28.1902 16.3137 28.766 16.5518 29.3657 16.5518H32.3804C32.9799 16.5517 33.555 16.3136 33.979 15.8896C34.403 15.4657 34.641 14.8906 34.6411 14.291C34.6411 13.6913 34.403 13.1154 33.979 12.6914C33.555 12.2676 32.9799 12.0294 32.3804 12.0293H29.3657Z" fill="#505DE9"/>
</svg>
